<svg width="163" height="49" viewBox="0 0 163 49" fill="none" xmlns="http://www.w3.org/2000/svg">
<path d="M77.7969 33H73.0469L73.0781 30.5469H77.7969C79.4219 30.5469 80.7761 30.2083 81.8594 29.5313C82.9427 28.8438 83.7552 27.8854 84.2969 26.6563C84.849 25.4167 85.125 23.9688 85.125 22.3125V20.9219C85.125 19.6198 84.9688 18.4635 84.6563 17.4531C84.3438 16.4323 83.8854 15.5729 83.2813 14.875C82.6771 14.1667 81.9375 13.6302 81.0625 13.2656C80.1979 12.901 79.2031 12.7188 78.0781 12.7188H72.9531V10.25H78.0781C79.5677 10.25 80.9271 10.5 82.1563 11C83.3854 11.4896 84.4427 12.2031 85.3281 13.1406C86.224 14.0677 86.9115 15.1927 87.3906 16.5156C87.8698 17.8281 88.1094 19.3073 88.1094 20.9531V22.3125C88.1094 23.9583 87.8698 25.4427 87.3906 26.7656C86.9115 28.0781 86.2188 29.1979 85.3125 30.125C84.4167 31.0521 83.3333 31.7656 82.0625 32.2656C80.8021 32.7552 79.3802 33 77.7969 33ZM74.6563 10.25V33H71.6406V10.25H74.6563Z" fill="#A907D1"/>
<path d="M99.2188 33.3125C98.0417 33.3125 96.974 33.1146 96.0156 32.7188C95.0677 32.3125 94.25 31.7448 93.5625 31.0156C92.8854 30.2865 92.3646 29.4219 92 28.4219C91.6354 27.4219 91.4531 26.3281 91.4531 25.1406V24.4844C91.4531 23.1094 91.6563 21.8854 92.0625 20.8125C92.4688 19.7292 93.0208 18.8125 93.7188 18.0625C94.4167 17.3125 95.2083 16.7448 96.0938 16.3594C96.9792 15.974 97.8958 15.7813 98.8438 15.7813C100.052 15.7813 101.094 15.9896 101.969 16.4063C102.854 16.8229 103.578 17.4063 104.141 18.1563C104.703 18.8958 105.12 19.7708 105.391 20.7813C105.661 21.7813 105.797 22.875 105.797 24.0625V25.3594H93.1719V23H102.906V22.7813C102.865 22.0313 102.708 21.3021 102.438 20.5938C102.177 19.8854 101.76 19.3021 101.188 18.8438C100.615 18.3854 99.8333 18.1563 98.8438 18.1563C98.1875 18.1563 97.5833 18.2969 97.0313 18.5781C96.4792 18.849 96.0052 19.2552 95.6094 19.7969C95.2136 20.3385 94.9063 21 94.6875 21.7813C94.4688 22.5625 94.3594 23.4635 94.3594 24.4844V25.1406C94.3594 25.9427 94.4688 26.6979 94.6875 27.4063C94.9167 28.1042 95.2448 28.7188 95.6719 29.25C96.1094 29.7813 96.6354 30.1979 97.25 30.5C97.875 30.8021 98.5833 30.9531 99.375 30.9531C100.396 30.9531 101.26 30.7448 101.969 30.3281C102.677 29.9115 103.297 29.3542 103.828 28.6563L105.578 30.0469C105.214 30.599 104.75 31.125 104.188 31.625C103.625 32.125 102.932 32.5313 102.109 32.8438C101.297 33.1563 100.333 33.3125 99.2188 33.3125Z" fill="#A907D1"/>
<path d="M114.094 30.3906L118.719 16.0938H121.672L115.594 33H113.656L114.094 30.3906ZM110.234 16.0938L115 30.4688L115.328 33H113.391L107.266 16.0938H110.234Z" fill="#A907D1"/>
<path d="M146.625 30.5469V33H135.25V30.5469H146.625ZM135.844 10.25V33H132.828V10.25H135.844Z" fill="#A907D1"/>
<path d="M159.484 28.5156C159.484 28.099 159.391 27.7135 159.203 27.3594C159.026 26.9948 158.656 26.6667 158.094 26.375C157.542 26.0729 156.708 25.8125 155.594 25.5938C154.656 25.3958 153.807 25.1615 153.047 24.8906C152.297 24.6198 151.656 24.2917 151.125 23.9063C150.604 23.5208 150.203 23.0677 149.922 22.5469C149.641 22.026 149.5 21.4167 149.5 20.7188C149.5 20.0521 149.646 19.4219 149.938 18.8281C150.24 18.2344 150.661 17.7083 151.203 17.25C151.755 16.7917 152.417 16.4323 153.188 16.1719C153.958 15.9115 154.818 15.7813 155.766 15.7813C157.12 15.7813 158.276 16.0208 159.234 16.5C160.193 16.9792 160.927 17.6198 161.438 18.4219C161.948 19.2135 162.203 20.0938 162.203 21.0625H159.313C159.313 20.5938 159.172 20.1406 158.891 19.7031C158.62 19.2552 158.219 18.8854 157.688 18.5938C157.167 18.3021 156.526 18.1563 155.766 18.1563C154.964 18.1563 154.313 18.2813 153.813 18.5313C153.323 18.7708 152.964 19.0781 152.734 19.4531C152.516 19.8281 152.406 20.224 152.406 20.6406C152.406 20.9531 152.458 21.2344 152.563 21.4844C152.677 21.724 152.875 21.9479 153.156 22.1563C153.438 22.3542 153.833 22.5417 154.344 22.7188C154.854 22.8958 155.505 23.0729 156.297 23.25C157.682 23.5625 158.823 23.9375 159.719 24.375C160.615 24.8125 161.281 25.349 161.719 25.9844C162.156 26.6198 162.375 27.3906 162.375 28.2969C162.375 29.0365 162.219 29.7135 161.906 30.3281C161.604 30.9427 161.161 31.474 160.578 31.9219C160.005 32.3594 159.318 32.7031 158.516 32.9531C157.724 33.1927 156.833 33.3125 155.844 33.3125C154.354 33.3125 153.094 33.0469 152.063 32.5156C151.031 31.9844 150.25 31.2969 149.719 30.4531C149.188 29.6094 148.922 28.7188 148.922 27.7813H151.828C151.87 28.5729 152.099 29.2031 152.516 29.6719C152.932 30.1302 153.443 30.4583 154.047 30.6563C154.651 30.8438 155.25 30.9375 155.844 30.9375C156.635 30.9375 157.297 30.8333 157.828 30.625C158.37 30.4167 158.781 30.1302 159.063 29.7656C159.344 29.401 159.484 28.9844 159.484 28.5156Z" fill="#A907D1"/>
<path d="M16.787 0.177537C16.1505 0.222178 15.5275 0.3829 14.9587 0.668619C13.776 1.26684 13.0266 2.3874 12.6068 3.68206C12.1824 4.97672 12.038 6.49013 12.0696 8.17766C12.1057 10.1777 12.4127 12.4366 12.9092 14.7983C11.0087 15.151 9.2662 15.6019 7.72231 16.1421C5.65927 16.8608 3.94385 17.7358 2.6663 18.8162C1.38876 19.8921 0.522012 21.2448 0.440757 22.7805C0.354984 24.3743 1.25784 25.7851 2.47219 26.9636C3.69105 28.1378 5.29362 29.1289 7.02711 29.7985C7.41534 29.9548 7.85322 29.8923 8.18277 29.6333C8.50779 29.3789 8.67032 28.9681 8.60711 28.5574C8.5394 28.1512 8.25951 27.8119 7.86677 27.6645C6.41318 27.1065 5.03179 26.2449 4.08832 25.3297C3.14934 24.4145 2.71597 23.4948 2.75209 22.8966C2.79272 22.1288 3.20803 21.3609 4.16957 20.5528C5.1266 19.7403 6.60729 18.9501 8.48974 18.2983C9.92077 17.7983 11.5865 17.3697 13.4284 17.0349C13.9611 19.1108 14.6156 21.2314 15.3876 23.3163C11.6588 29.9414 9.68152 35.8164 9.75826 40.1781C9.8034 42.8612 10.774 45.071 12.5932 46.2407C13.8347 47.0354 15.3289 47.3345 16.8863 47.022C18.4438 46.7095 20.0734 45.8702 21.983 44.5175C22.3306 44.2853 22.5202 43.888 22.484 43.4728C22.4479 43.0621 22.1861 42.7005 21.8069 42.5353C21.4232 42.3656 20.9808 42.4103 20.6467 42.6603C18.8726 43.9059 17.4822 44.571 16.4259 44.7853C15.3695 44.9952 14.6608 44.8434 13.8572 44.321C12.8325 43.6648 12.1057 42.3165 12.0696 40.1424C12.0109 36.8388 13.5051 31.861 16.4936 26.1199C16.8818 27.044 17.2881 27.9503 17.717 28.8342C20.8002 35.2406 24.6825 40.4862 28.4655 43.9103C30.357 45.6202 32.2214 46.8791 34.0181 47.5756C35.8148 48.272 37.625 48.4149 39.1508 47.647L39.214 47.6113L39.2727 47.5756C40.5683 46.7095 41.3719 45.2764 41.8097 43.5577C42.2431 41.8433 42.3379 39.8031 42.1348 37.504C41.733 32.9102 40.1394 27.2806 37.3857 21.3921C37.1194 20.8207 36.4332 20.5707 35.8509 20.8386C35.2731 21.102 35.0202 21.7806 35.2911 22.3565C37.9455 28.0396 39.4623 33.4727 39.8325 37.7049C40.0176 39.821 39.9137 41.6335 39.5661 42.9996C39.2276 44.3255 38.6768 45.1648 38.0358 45.6247C37.2729 45.9773 36.2436 45.9863 34.8623 45.4461C33.4538 44.897 31.77 43.7987 30.0229 42.2184C26.5334 39.0621 22.773 34.0173 19.7981 27.8521C19.1345 26.4637 18.516 24.9949 17.9382 23.4993C18.6424 22.2806 19.3873 21.0395 20.2179 19.7716C21.044 18.5171 21.8927 17.3162 22.7595 16.1778C23.0484 16.1733 23.3373 16.16 23.6307 16.16C24.8721 16.1555 26.1497 16.1912 27.4498 16.2582C34.3702 16.6153 40.5864 17.9278 44.9382 19.7225C47.1186 20.6199 48.825 21.6422 49.9039 22.6511C50.9828 23.6601 51.4026 24.5753 51.362 25.419C51.3169 26.1914 50.9602 26.9414 50.1431 27.7271C49.3215 28.5128 48.0395 29.2941 46.3241 29.9503C45.9223 30.0887 45.6243 30.428 45.5566 30.8432C45.4844 31.2584 45.6469 31.678 45.9855 31.937C46.3195 32.1914 46.7665 32.2495 47.1547 32.0843C49.0778 31.3432 50.6262 30.4503 51.7547 29.37C52.8788 28.2851 53.5921 26.9637 53.6688 25.5351C53.7546 23.8431 52.8743 22.2851 51.4884 20.9859C50.107 19.6913 48.1794 18.5796 45.832 17.6109C41.1281 15.6734 34.7088 14.343 27.5672 13.9769C26.556 13.9233 25.5673 13.9099 24.5787 13.8965C26.4837 11.6153 28.4249 9.62863 30.2893 8.03484C33.6163 5.20445 36.7447 3.65978 38.6904 3.58835H38.6949C39.4172 3.56156 39.9589 3.70442 40.4103 3.99014C41.873 4.93212 43.1009 7.45448 41.1055 11.0349C40.8843 11.3965 40.8798 11.8474 41.0965 12.209C41.3087 12.5706 41.7059 12.7894 42.1303 12.776C42.5546 12.7581 42.9383 12.517 43.1279 12.142C45.5657 7.76698 44.252 3.7312 41.6698 2.07493H41.6653C40.7715 1.49902 39.7016 1.26241 38.6091 1.30259H38.6046C35.6478 1.41421 32.3117 3.29815 28.7815 6.30267C26.4025 8.33394 23.9557 10.9188 21.6038 13.9144C19.3557 13.9858 17.2114 14.1599 15.2116 14.4323C14.7195 12.1376 14.4125 9.97238 14.3809 8.14199C14.3538 6.61072 14.5028 5.31159 14.8053 4.38301C15.1077 3.45889 15.514 2.95888 16.0061 2.70888C16.295 2.56602 16.5975 2.48119 16.9586 2.45441C18.1413 2.36512 20.4617 3.6196 22.8859 5.6107C23.2064 5.87857 23.6443 5.95446 24.0325 5.8116C24.4252 5.67321 24.7096 5.33391 24.7773 4.92765C24.8451 4.5214 24.6871 4.11068 24.3665 3.85174C21.8115 1.75796 19.3601 -0.0144315 16.787 0.177537ZM19.8206 16.2849C19.3015 17.0171 18.7868 17.7582 18.2812 18.5305C17.8027 19.2582 17.3693 19.9769 16.927 20.6957C16.4755 19.343 16.0873 18.0037 15.7397 16.6778C17.0398 16.5037 18.4031 16.3742 19.8206 16.2849ZM27.0931 20.7314C25.1791 20.7314 23.6262 22.2671 23.6262 24.16C23.6262 26.0529 25.1791 27.5886 27.0931 27.5886C29.0072 27.5886 30.5601 26.0529 30.5601 24.16C30.5601 22.2671 29.0072 20.7314 27.0931 20.7314Z" fill="#A907D1"/>
</svg>
